<mxfile host="app.diagrams.net" modified="2023-11-01T16:31:16.895Z" agent="Mozilla/5.0 (Windows NT 10.0; Win64; x64) AppleWebKit/537.36 (KHTML, like Gecko) Chrome/118.0.0.0 Safari/537.36" etag="w0QZs8i5FuGzodlHcJxP" version="22.0.8" type="github">
  <diagram name="第 1 页" id="35Dw5KZxVvrhzY_Uyl_M">
    <mxGraphModel dx="1195" dy="625" grid="1" gridSize="10" guides="1" tooltips="1" connect="1" arrows="1" fold="1" page="1" pageScale="1" pageWidth="827" pageHeight="1169" math="0" shadow="0">
      <root>
        <mxCell id="0" />
        <mxCell id="1" parent="0" />
        <mxCell id="jDWt54l5Nfe5_a_FWcgh-1" value="唐老鴨" style="swimlane;fontStyle=1;align=center;verticalAlign=top;childLayout=stackLayout;horizontal=1;startSize=26;horizontalStack=0;resizeParent=1;resizeParentMax=0;resizeLast=0;collapsible=1;marginBottom=0;whiteSpace=wrap;html=1;fillColor=#e51400;fontColor=#ffffff;strokeColor=#B20000;" vertex="1" parent="1">
          <mxGeometry x="483.5" y="290" width="60" height="90" as="geometry" />
        </mxCell>
        <mxCell id="jDWt54l5Nfe5_a_FWcgh-2" value="&amp;nbsp;" style="text;strokeColor=none;fillColor=none;align=left;verticalAlign=top;spacingLeft=4;spacingRight=4;overflow=hidden;rotatable=0;points=[[0,0.5],[1,0.5]];portConstraint=eastwest;whiteSpace=wrap;html=1;" vertex="1" parent="jDWt54l5Nfe5_a_FWcgh-1">
          <mxGeometry y="26" width="60" height="24" as="geometry" />
        </mxCell>
        <mxCell id="jDWt54l5Nfe5_a_FWcgh-3" value="" style="line;strokeWidth=1;fillColor=none;align=left;verticalAlign=middle;spacingTop=-1;spacingLeft=3;spacingRight=3;rotatable=0;labelPosition=right;points=[];portConstraint=eastwest;strokeColor=inherit;" vertex="1" parent="jDWt54l5Nfe5_a_FWcgh-1">
          <mxGeometry y="50" width="60" height="8" as="geometry" />
        </mxCell>
        <mxCell id="jDWt54l5Nfe5_a_FWcgh-4" value="+下蛋()" style="text;strokeColor=none;fillColor=none;align=left;verticalAlign=top;spacingLeft=4;spacingRight=4;overflow=hidden;rotatable=0;points=[[0,0.5],[1,0.5]];portConstraint=eastwest;whiteSpace=wrap;html=1;" vertex="1" parent="jDWt54l5Nfe5_a_FWcgh-1">
          <mxGeometry y="58" width="60" height="32" as="geometry" />
        </mxCell>
        <mxCell id="jDWt54l5Nfe5_a_FWcgh-5" value="" style="ellipse;whiteSpace=wrap;html=1;aspect=fixed;fillColor=#e3c800;fontColor=#000000;strokeColor=#B09500;" vertex="1" parent="1">
          <mxGeometry x="500" y="410" width="30" height="30" as="geometry" />
        </mxCell>
        <mxCell id="jDWt54l5Nfe5_a_FWcgh-6" style="edgeStyle=orthogonalEdgeStyle;rounded=0;orthogonalLoop=1;jettySize=auto;html=1;exitX=0.5;exitY=0;exitDx=0;exitDy=0;entryX=0.52;entryY=1;entryDx=0;entryDy=0;entryPerimeter=0;endArrow=none;endFill=0;" edge="1" parent="1" source="jDWt54l5Nfe5_a_FWcgh-5" target="jDWt54l5Nfe5_a_FWcgh-4">
          <mxGeometry relative="1" as="geometry" />
        </mxCell>
        <mxCell id="jDWt54l5Nfe5_a_FWcgh-7" value="講人話" style="text;html=1;align=center;verticalAlign=middle;resizable=0;points=[];autosize=1;strokeColor=none;fillColor=none;" vertex="1" parent="1">
          <mxGeometry x="485" y="450" width="60" height="30" as="geometry" />
        </mxCell>
        <mxCell id="jDWt54l5Nfe5_a_FWcgh-9" value="&lt;font style=&quot;font-size: 15px;&quot;&gt;接口:&lt;br&gt;棒棒糖表示法&lt;br&gt;旁邊圍接口名稱&lt;br&gt;接口方法在現實類別中出現&lt;br&gt;&lt;/font&gt;" style="shape=note;whiteSpace=wrap;html=1;backgroundOutline=1;darkOpacity=0.05;fillColor=#60a917;fontColor=#ffffff;strokeColor=#2D7600;align=left;" vertex="1" parent="1">
          <mxGeometry x="240" y="360" width="200" height="100" as="geometry" />
        </mxCell>
      </root>
    </mxGraphModel>
  </diagram>
</mxfile>
